<svg width="21" height="20" viewBox="0 0 21 20" fill="none" xmlns="http://www.w3.org/2000/svg">
<path d="M17.7798 2H15.7798V1C15.7798 0.734784 15.6744 0.48043 15.4869 0.292893C15.2994 0.105357 15.045 0 14.7798 0C14.5146 0 14.2602 0.105357 14.0727 0.292893C13.8851 0.48043 13.7798 0.734784 13.7798 1V2H7.77979V1C7.77979 0.734784 7.67443 0.48043 7.48689 0.292893C7.29936 0.105357 7.045 0 6.77979 0C6.51457 0 6.26021 0.105357 6.07268 0.292893C5.88514 0.48043 5.77979 0.734784 5.77979 1V2H3.77979C2.98414 2 2.22107 2.31607 1.65846 2.87868C1.09586 3.44129 0.779785 4.20435 0.779785 5V17C0.779785 17.7956 1.09586 18.5587 1.65846 19.1213C2.22107 19.6839 2.98414 20 3.77979 20H17.7798C18.5754 20 19.3385 19.6839 19.9011 19.1213C20.4637 18.5587 20.7798 17.7956 20.7798 17V5C20.7798 4.20435 20.4637 3.44129 19.9011 2.87868C19.3385 2.31607 18.5754 2 17.7798 2ZM18.7798 17C18.7798 17.2652 18.6744 17.5196 18.4869 17.7071C18.2994 17.8946 18.045 18 17.7798 18H3.77979C3.51457 18 3.26022 17.8946 3.07268 17.7071C2.88514 17.5196 2.77979 17.2652 2.77979 17V10H18.7798V17ZM18.7798 8H2.77979V5C2.77979 4.73478 2.88514 4.48043 3.07268 4.29289C3.26022 4.10536 3.51457 4 3.77979 4H5.77979V5C5.77979 5.26522 5.88514 5.51957 6.07268 5.70711C6.26021 5.89464 6.51457 6 6.77979 6C7.045 6 7.29936 5.89464 7.48689 5.70711C7.67443 5.51957 7.77979 5.26522 7.77979 5V4H13.7798V5C13.7798 5.26522 13.8851 5.51957 14.0727 5.70711C14.2602 5.89464 14.5146 6 14.7798 6C15.045 6 15.2994 5.89464 15.4869 5.70711C15.6744 5.51957 15.7798 5.26522 15.7798 5V4H17.7798C18.045 4 18.2994 4.10536 18.4869 4.29289C18.6744 4.48043 18.7798 4.73478 18.7798 5V8Z" fill="white"/>
</svg>
