<svg width="21" height="16" viewBox="0 0 21 16" fill="none" xmlns="http://www.w3.org/2000/svg">
<path d="M16.6662 6C16.6662 5.73479 16.5608 5.48043 16.3733 5.2929C16.1857 5.10536 15.9314 5 15.6662 5H4.07615L6.37616 2.71C6.56446 2.5217 6.67025 2.2663 6.67025 2C6.67025 1.7337 6.56446 1.47831 6.37616 1.29C6.18785 1.1017 5.93246 0.995911 5.66616 0.995911C5.39985 0.995911 5.14446 1.1017 4.95616 1.29L0.956155 5.29C0.817397 5.43063 0.723401 5.6092 0.686027 5.80319C0.648653 5.99718 0.669576 6.19789 0.746155 6.38C0.821175 6.56262 0.948573 6.71895 1.11229 6.82928C1.27601 6.93961 1.46873 6.99902 1.66616 7H15.6662C15.9314 7 16.1857 6.89465 16.3733 6.70711C16.5608 6.51957 16.6662 6.26522 16.6662 6ZM20.5862 9.62C20.5111 9.43738 20.3837 9.28106 20.22 9.17072C20.0563 9.06039 19.8636 9.00099 19.6662 9H5.66616C5.40094 9 5.14658 9.10536 4.95905 9.2929C4.77151 9.48043 4.66616 9.73479 4.66616 10C4.66616 10.2652 4.77151 10.5196 4.95905 10.7071C5.14658 10.8946 5.40094 11 5.66616 11H17.2562L14.9562 13.29C14.8624 13.383 14.788 13.4936 14.7373 13.6154C14.6865 13.7373 14.6604 13.868 14.6604 14C14.6604 14.132 14.6865 14.2627 14.7373 14.3846C14.788 14.5064 14.8624 14.617 14.9562 14.71C15.0491 14.8037 15.1597 14.8781 15.2816 14.9289C15.4034 14.9797 15.5341 15.0058 15.6662 15.0058C15.7982 15.0058 15.9289 14.9797 16.0507 14.9289C16.1726 14.8781 16.2832 14.8037 16.3762 14.71L20.3762 10.71C20.5149 10.5694 20.6089 10.3908 20.6463 10.1968C20.6837 10.0028 20.6627 9.80211 20.5862 9.62Z" fill="#009EF7"/>
</svg>
