<svg width="21" height="18" viewBox="0 0 21 18" fill="none" xmlns="http://www.w3.org/2000/svg">
<path d="M8.1665 8H1.1665C0.901287 8 0.646933 8.10536 0.459397 8.29289C0.271861 8.48043 0.166504 8.73478 0.166504 9C0.166504 9.26522 0.271861 9.51957 0.459397 9.70711C0.646933 9.89464 0.901287 10 1.1665 10H8.1665C8.43172 10 8.68607 9.89464 8.87361 9.70711C9.06115 9.51957 9.1665 9.26522 9.1665 9C9.1665 8.73478 9.06115 8.48043 8.87361 8.29289C8.68607 8.10536 8.43172 8 8.1665 8ZM8.1665 16H1.1665C0.901287 16 0.646933 16.1054 0.459397 16.2929C0.271861 16.4804 0.166504 16.7348 0.166504 17C0.166504 17.2652 0.271861 17.5196 0.459397 17.7071C0.646933 17.8946 0.901287 18 1.1665 18H8.1665C8.43172 18 8.68607 17.8946 8.87361 17.7071C9.06115 17.5196 9.1665 17.2652 9.1665 17C9.1665 16.7348 9.06115 16.4804 8.87361 16.2929C8.68607 16.1054 8.43172 16 8.1665 16ZM12.1665 2H19.1665C19.4317 2 19.6861 1.89464 19.8736 1.70711C20.0611 1.51957 20.1665 1.26522 20.1665 1C20.1665 0.734784 20.0611 0.48043 19.8736 0.292893C19.6861 0.105357 19.4317 0 19.1665 0H12.1665C11.9013 0 11.6469 0.105357 11.4594 0.292893C11.2719 0.48043 11.1665 0.734784 11.1665 1C11.1665 1.26522 11.2719 1.51957 11.4594 1.70711C11.6469 1.89464 11.9013 2 12.1665 2V2ZM8.1665 4H1.1665C0.901287 4 0.646933 4.10536 0.459397 4.29289C0.271861 4.48043 0.166504 4.73478 0.166504 5C0.166504 5.26522 0.271861 5.51957 0.459397 5.70711C0.646933 5.89464 0.901287 6 1.1665 6H8.1665C8.43172 6 8.68607 5.89464 8.87361 5.70711C9.06115 5.51957 9.1665 5.26522 9.1665 5C9.1665 4.73478 9.06115 4.48043 8.87361 4.29289C8.68607 4.10536 8.43172 4 8.1665 4ZM8.1665 12H1.1665C0.901287 12 0.646933 12.1054 0.459397 12.2929C0.271861 12.4804 0.166504 12.7348 0.166504 13C0.166504 13.2652 0.271861 13.5196 0.459397 13.7071C0.646933 13.8946 0.901287 14 1.1665 14H8.1665C8.43172 14 8.68607 13.8946 8.87361 13.7071C9.06115 13.5196 9.1665 13.2652 9.1665 13C9.1665 12.7348 9.06115 12.4804 8.87361 12.2929C8.68607 12.1054 8.43172 12 8.1665 12ZM8.1665 0H5.1665C4.90129 0 4.64693 0.105357 4.4594 0.292893C4.27186 0.48043 4.1665 0.734784 4.1665 1C4.1665 1.26522 4.27186 1.51957 4.4594 1.70711C4.64693 1.89464 4.90129 2 5.1665 2H8.1665C8.43172 2 8.68607 1.89464 8.87361 1.70711C9.06115 1.51957 9.1665 1.26522 9.1665 1C9.1665 0.734784 9.06115 0.48043 8.87361 0.292893C8.68607 0.105357 8.43172 0 8.1665 0V0ZM19.1665 4H12.1665C11.9013 4 11.6469 4.10536 11.4594 4.29289C11.2719 4.48043 11.1665 4.73478 11.1665 5C11.1665 5.26522 11.2719 5.51957 11.4594 5.70711C11.6469 5.89464 11.9013 6 12.1665 6H19.1665C19.4317 6 19.6861 5.89464 19.8736 5.70711C20.0611 5.51957 20.1665 5.26522 20.1665 5C20.1665 4.73478 20.0611 4.48043 19.8736 4.29289C19.6861 4.10536 19.4317 4 19.1665 4ZM19.1665 8H12.1665C11.9013 8 11.6469 8.10536 11.4594 8.29289C11.2719 8.48043 11.1665 8.73478 11.1665 9C11.1665 9.26522 11.2719 9.51957 11.4594 9.70711C11.6469 9.89464 11.9013 10 12.1665 10H19.1665C19.4317 10 19.6861 9.89464 19.8736 9.70711C20.0611 9.51957 20.1665 9.26522 20.1665 9C20.1665 8.73478 20.0611 8.48043 19.8736 8.29289C19.6861 8.10536 19.4317 8 19.1665 8ZM15.1665 16H12.1665C11.9013 16 11.6469 16.1054 11.4594 16.2929C11.2719 16.4804 11.1665 16.7348 11.1665 17C11.1665 17.2652 11.2719 17.5196 11.4594 17.7071C11.6469 17.8946 11.9013 18 12.1665 18H15.1665C15.4317 18 15.6861 17.8946 15.8736 17.7071C16.0611 17.5196 16.1665 17.2652 16.1665 17C16.1665 16.7348 16.0611 16.4804 15.8736 16.2929C15.6861 16.1054 15.4317 16 15.1665 16ZM19.1665 12H12.1665C11.9013 12 11.6469 12.1054 11.4594 12.2929C11.2719 12.4804 11.1665 12.7348 11.1665 13C11.1665 13.2652 11.2719 13.5196 11.4594 13.7071C11.6469 13.8946 11.9013 14 12.1665 14H19.1665C19.4317 14 19.6861 13.8946 19.8736 13.7071C20.0611 13.5196 20.1665 13.2652 20.1665 13C20.1665 12.7348 20.0611 12.4804 19.8736 12.2929C19.6861 12.1054 19.4317 12 19.1665 12Z" fill="white"/>
</svg>
