<svg width="21" height="14" viewBox="0 0 21 14" fill="none" xmlns="http://www.w3.org/2000/svg">
<path d="M1.5 2H19.5C19.7652 2 20.0196 1.89464 20.2071 1.70711C20.3946 1.51957 20.5 1.26522 20.5 1C20.5 0.734784 20.3946 0.48043 20.2071 0.292893C20.0196 0.105357 19.7652 0 19.5 0H1.5C1.23478 0 0.98043 0.105357 0.792893 0.292893C0.605357 0.48043 0.5 0.734784 0.5 1C0.5 1.26522 0.605357 1.51957 0.792893 1.70711C0.98043 1.89464 1.23478 2 1.5 2V2ZM5.5 4C5.23478 4 4.98043 4.10536 4.79289 4.29289C4.60536 4.48043 4.5 4.73478 4.5 5C4.5 5.26522 4.60536 5.51957 4.79289 5.70711C4.98043 5.89464 5.23478 6 5.5 6H15.5C15.7652 6 16.0196 5.89464 16.2071 5.70711C16.3946 5.51957 16.5 5.26522 16.5 5C16.5 4.73478 16.3946 4.48043 16.2071 4.29289C16.0196 4.10536 15.7652 4 15.5 4H5.5ZM19.5 8H1.5C1.23478 8 0.98043 8.10536 0.792893 8.29289C0.605357 8.48043 0.5 8.73478 0.5 9C0.5 9.26522 0.605357 9.51957 0.792893 9.70711C0.98043 9.89464 1.23478 10 1.5 10H19.5C19.7652 10 20.0196 9.89464 20.2071 9.70711C20.3946 9.51957 20.5 9.26522 20.5 9C20.5 8.73478 20.3946 8.48043 20.2071 8.29289C20.0196 8.10536 19.7652 8 19.5 8ZM15.5 12H5.5C5.23478 12 4.98043 12.1054 4.79289 12.2929C4.60536 12.4804 4.5 12.7348 4.5 13C4.5 13.2652 4.60536 13.5196 4.79289 13.7071C4.98043 13.8946 5.23478 14 5.5 14H15.5C15.7652 14 16.0196 13.8946 16.2071 13.7071C16.3946 13.5196 16.5 13.2652 16.5 13C16.5 12.7348 16.3946 12.4804 16.2071 12.2929C16.0196 12.1054 15.7652 12 15.5 12Z" fill="white"/>
</svg>
