<svg width="17" height="16" viewBox="0 0 17 16" fill="none" xmlns="http://www.w3.org/2000/svg">
<path d="M15.666 12H14.666V3C14.666 2.73478 14.5607 2.48043 14.3731 2.29289C14.1856 2.10536 13.9312 2 13.666 2H4.66602V1C4.66602 0.734784 4.56066 0.48043 4.37312 0.292893C4.18559 0.105357 3.93123 0 3.66602 0C3.4008 0 3.14645 0.105357 2.95891 0.292893C2.77137 0.48043 2.66602 0.734784 2.66602 1V2H1.66602C1.4008 2 1.14645 2.10536 0.958909 2.29289C0.771373 2.48043 0.666016 2.73478 0.666016 3C0.666016 3.26522 0.771373 3.51957 0.958909 3.70711C1.14645 3.89464 1.4008 4 1.66602 4H2.66602V13C2.66602 13.2652 2.77137 13.5196 2.95891 13.7071C3.14645 13.8946 3.4008 14 3.66602 14H12.666V15C12.666 15.2652 12.7714 15.5196 12.9589 15.7071C13.1464 15.8946 13.4008 16 13.666 16C13.9312 16 14.1856 15.8946 14.3731 15.7071C14.5607 15.5196 14.666 15.2652 14.666 15V14H15.666C15.9312 14 16.1856 13.8946 16.3731 13.7071C16.5607 13.5196 16.666 13.2652 16.666 13C16.666 12.7348 16.5607 12.4804 16.3731 12.2929C16.1856 12.1054 15.9312 12 15.666 12ZM12.666 12H4.66602V4H12.666V12Z" fill="#009EF7"/>
</svg>
