<svg width="17" height="20" viewBox="0 0 17 20" fill="none" xmlns="http://www.w3.org/2000/svg">
<path d="M13.7778 0H1.77783C1.51262 0 1.25826 0.105357 1.07073 0.292893C0.883189 0.48043 0.777832 0.734784 0.777832 1V17C0.777832 17.2652 0.883189 17.5196 1.07073 17.7071C1.25826 17.8946 1.51262 18 1.77783 18H2.77783V19C2.77783 19.2652 2.88319 19.5196 3.07073 19.7071C3.25826 19.8946 3.51262 20 3.77783 20C4.04305 20 4.2974 19.8946 4.48494 19.7071C4.67248 19.5196 4.77783 19.2652 4.77783 19V18H13.7778C14.5735 18 15.3365 17.6839 15.8992 17.1213C16.4618 16.5587 16.7778 15.7956 16.7778 15V3C16.7778 2.20435 16.4618 1.44129 15.8992 0.87868C15.3365 0.316071 14.5735 0 13.7778 0ZM10.7778 16H2.77783V2H10.7778V16ZM14.7778 15C14.7778 15.2652 14.6725 15.5196 14.4849 15.7071C14.2974 15.8946 14.043 16 13.7778 16H12.7778V2H13.7778C14.043 2 14.2974 2.10536 14.4849 2.29289C14.6725 2.48043 14.7778 2.73478 14.7778 3V15Z" fill="white"/>
</svg>
