<svg width="21" height="20" viewBox="0 0 21 20" fill="none" xmlns="http://www.w3.org/2000/svg">
<path d="M7.33789 11H9.33789V13C9.33789 13.2652 9.44325 13.5196 9.63078 13.7071C9.81832 13.8946 10.0727 14 10.3379 14C10.6031 14 10.8575 13.8946 11.045 13.7071C11.2325 13.5196 11.3379 13.2652 11.3379 13V11H13.3379C13.6031 11 13.8575 10.8946 14.045 10.7071C14.2325 10.5196 14.3379 10.2652 14.3379 10C14.3379 9.73478 14.2325 9.48043 14.045 9.29289C13.8575 9.10536 13.6031 9 13.3379 9H11.3379V7C11.3379 6.73478 11.2325 6.48043 11.045 6.29289C10.8575 6.10536 10.6031 6 10.3379 6C10.0727 6 9.81832 6.10536 9.63078 6.29289C9.44325 6.48043 9.33789 6.73478 9.33789 7V9H7.33789C7.07267 9 6.81832 9.10536 6.63078 9.29289C6.44325 9.48043 6.33789 9.73478 6.33789 10C6.33789 10.2652 6.44325 10.5196 6.63078 10.7071C6.81832 10.8946 7.07267 11 7.33789 11ZM19.3379 0H1.33789C1.07267 0 0.81832 0.105357 0.630784 0.292893C0.443247 0.48043 0.337891 0.734784 0.337891 1V19C0.337891 19.2652 0.443247 19.5196 0.630784 19.7071C0.81832 19.8946 1.07267 20 1.33789 20H19.3379C19.6031 20 19.8575 19.8946 20.045 19.7071C20.2325 19.5196 20.3379 19.2652 20.3379 19V1C20.3379 0.734784 20.2325 0.48043 20.045 0.292893C19.8575 0.105357 19.6031 0 19.3379 0ZM18.3379 18H2.33789V2H18.3379V18Z" fill="white"/>
</svg>
