<svg width="20" height="21" viewBox="0 0 20 21" fill="none" xmlns="http://www.w3.org/2000/svg">
<path d="M9.8335 18H3.8335C3.56828 18 3.31393 17.8946 3.12639 17.7071C2.93885 17.5196 2.8335 17.2652 2.8335 17V3C2.8335 2.73478 2.93885 2.48043 3.12639 2.29289C3.31393 2.10536 3.56828 2 3.8335 2H8.8335V5C8.8335 5.79565 9.14957 6.55871 9.71218 7.12132C10.2748 7.68393 11.0378 8 11.8335 8H14.8335V13C14.8335 13.2652 14.9389 13.5196 15.1264 13.7071C15.3139 13.8946 15.5683 14 15.8335 14C16.0987 14 16.3531 13.8946 16.5406 13.7071C16.7281 13.5196 16.8335 13.2652 16.8335 13V7C16.8335 7 16.8335 7 16.8335 6.94C16.8231 6.84813 16.803 6.75763 16.7735 6.67V6.58C16.7254 6.47718 16.6613 6.38267 16.5835 6.3V6.3L10.5835 0.3C10.5008 0.222216 10.4063 0.158081 10.3035 0.11C10.2704 0.104209 10.2366 0.104209 10.2035 0.11C10.1063 0.058003 10.0018 0.020922 9.8935 0H3.8335C3.03785 0 2.27478 0.316071 1.71218 0.87868C1.14957 1.44129 0.833496 2.20435 0.833496 3V17C0.833496 17.7956 1.14957 18.5587 1.71218 19.1213C2.27478 19.6839 3.03785 20 3.8335 20H9.8335C10.0987 20 10.3531 19.8946 10.5406 19.7071C10.7281 19.5196 10.8335 19.2652 10.8335 19C10.8335 18.7348 10.7281 18.4804 10.5406 18.2929C10.3531 18.1054 10.0987 18 9.8335 18ZM10.8335 3.41L13.4235 6H11.8335C11.5683 6 11.3139 5.89464 11.1264 5.70711C10.9389 5.51957 10.8335 5.26522 10.8335 5V3.41ZM5.8335 12H11.8335C12.0987 12 12.3531 11.8946 12.5406 11.7071C12.7281 11.5196 12.8335 11.2652 12.8335 11C12.8335 10.7348 12.7281 10.4804 12.5406 10.2929C12.3531 10.1054 12.0987 10 11.8335 10H5.8335C5.56828 10 5.31393 10.1054 5.12639 10.2929C4.93885 10.4804 4.8335 10.7348 4.8335 11C4.8335 11.2652 4.93885 11.5196 5.12639 11.7071C5.31393 11.8946 5.56828 12 5.8335 12ZM9.8335 14H5.8335C5.56828 14 5.31393 14.1054 5.12639 14.2929C4.93885 14.4804 4.8335 14.7348 4.8335 15C4.8335 15.2652 4.93885 15.5196 5.12639 15.7071C5.31393 15.8946 5.56828 16 5.8335 16H9.8335C10.0987 16 10.3531 15.8946 10.5406 15.7071C10.7281 15.5196 10.8335 15.2652 10.8335 15C10.8335 14.7348 10.7281 14.4804 10.5406 14.2929C10.3531 14.1054 10.0987 14 9.8335 14ZM5.8335 8H6.8335C7.09871 8 7.35307 7.89464 7.5406 7.70711C7.72814 7.51957 7.8335 7.26522 7.8335 7C7.8335 6.73478 7.72814 6.48043 7.5406 6.29289C7.35307 6.10536 7.09871 6 6.8335 6H5.8335C5.56828 6 5.31393 6.10536 5.12639 6.29289C4.93885 6.48043 4.8335 6.73478 4.8335 7C4.8335 7.26522 4.93885 7.51957 5.12639 7.70711C5.31393 7.89464 5.56828 8 5.8335 8ZM19.5435 14.29C19.4505 14.1963 19.3399 14.1219 19.2181 14.0711C19.0962 14.0203 18.9655 13.9942 18.8335 13.9942C18.7015 13.9942 18.5708 14.0203 18.4489 14.0711C18.3271 14.1219 18.2165 14.1963 18.1235 14.29L14.8335 17.59L13.5435 16.29C13.4503 16.1968 13.3396 16.1228 13.2177 16.0723C13.0959 16.0219 12.9654 15.9959 12.8335 15.9959C12.7016 15.9959 12.5711 16.0219 12.4492 16.0723C12.3274 16.1228 12.2167 16.1968 12.1235 16.29C12.0303 16.3832 11.9563 16.4939 11.9058 16.6158C11.8554 16.7376 11.8294 16.8681 11.8294 17C11.8294 17.1319 11.8554 17.2624 11.9058 17.3842C11.9563 17.5061 12.0303 17.6168 12.1235 17.71L14.1235 19.71C14.2165 19.8037 14.3271 19.8781 14.4489 19.9289C14.5708 19.9797 14.7015 20.0058 14.8335 20.0058C14.9655 20.0058 15.0962 19.9797 15.2181 19.9289C15.3399 19.8781 15.4505 19.8037 15.5435 19.71L19.5435 15.71C19.6372 15.617 19.7116 15.5064 19.7624 15.3846C19.8132 15.2627 19.8393 15.132 19.8393 15C19.8393 14.868 19.8132 14.7373 19.7624 14.6154C19.7116 14.4936 19.6372 14.383 19.5435 14.29V14.29Z" fill="white"/>
</svg>
