<svg width="25" height="24" viewBox="0 0 25 24" fill="none" xmlns="http://www.w3.org/2000/svg">
<path d="M21.1665 2H3.1665C2.90129 2 2.64693 2.10536 2.4594 2.29289C2.27186 2.48043 2.1665 2.73478 2.1665 3V21C2.1665 21.2652 2.27186 21.5196 2.4594 21.7071C2.64693 21.8946 2.90129 22 3.1665 22H21.1665C21.4317 22 21.6861 21.8946 21.8736 21.7071C22.0611 21.5196 22.1665 21.2652 22.1665 21V3C22.1665 2.73478 22.0611 2.48043 21.8736 2.29289C21.6861 2.10536 21.4317 2 21.1665 2ZM8.1665 20H4.1665V4H8.1665V20ZM14.1665 20H10.1665V4H14.1665V20ZM20.1665 20H16.1665V4H20.1665V20Z" fill="white"/>
</svg>
