<svg width="21" height="20" viewBox="0 0 21 20" fill="none" xmlns="http://www.w3.org/2000/svg">
<path d="M19.1665 0H1.1665C0.901287 0 0.646933 0.105357 0.459397 0.292893C0.271861 0.48043 0.166504 0.734784 0.166504 1V19C0.166504 19.2652 0.271861 19.5196 0.459397 19.7071C0.646933 19.8946 0.901287 20 1.1665 20H19.1665C19.4317 20 19.6861 19.8946 19.8736 19.7071C20.0611 19.5196 20.1665 19.2652 20.1665 19V1C20.1665 0.734784 20.0611 0.48043 19.8736 0.292893C19.6861 0.105357 19.4317 0 19.1665 0V0ZM9.1665 18H2.1665V2H9.1665V18ZM18.1665 18H11.1665V2H18.1665V18Z" fill="white"/>
</svg>
