<?xml version="1.0" encoding="UTF-8"?>
<!DOCTYPE svg PUBLIC "-//W3C//DTD SVG 1.1//EN" "http://www.w3.org/Graphics/SVG/1.1/DTD/svg11.dtd">
<!-- Creator: CorelDRAW -->
<svg xmlns="http://www.w3.org/2000/svg" xml:space="preserve" width="10mm" height="7.5mm" version="1.1" style="shape-rendering:geometricPrecision; text-rendering:geometricPrecision; image-rendering:optimizeQuality; fill-rule:evenodd; clip-rule:evenodd"
viewBox="0 0 1000 750"
 xmlns:xlink="http://www.w3.org/1999/xlink"
 xmlns:xodm="http://www.corel.com/coreldraw/odm/2003">
 <defs>
  <style type="text/css">
   <![CDATA[
    .fil0 {fill:#FEFEFE}
   ]]>
  </style>
 </defs>
 <g id="Capa_x0020_1">
  <metadata id="CorelCorpID_0Corel-Layer"/>
  <path class="fil0" d="M150.21 571.94l0.17 -434.67c128.45,39.81 188.7,65.94 339.35,66.18 94.67,0.15 176.01,-13.31 264.85,-38.86 27.09,-7.79 52.89,-20.55 78.67,-27.32l-0.12 434.67c-133.04,-37.67 -176.89,-63.88 -339.36,-64.13 -164.65,-0.24 -208.32,26.13 -343.56,64.13zm-32.81 43.53c27.54,7.93 56.96,-12.37 84.22,-21.61 29.15,-9.87 58.57,-18.01 87.72,-25.31 162.37,-40.7 338.22,-27.37 495.65,26.24 26.37,8.98 54.11,28.46 81.12,20.68 8.42,-27 8.42,-495.11 0,-522.11 -26.87,-8.04 -58.66,14.05 -86.62,23.34 -98.14,32.59 -180.15,49.65 -289.76,49.41 -69.7,-0.15 -138.34,-9.13 -201.69,-24.24 -62.92,-15 -146.78,-55.64 -170.64,-48.52 -8.33,26.08 -8.35,495.36 0,522.12z"/>
 </g>
</svg>
