<svg width="21" height="20" viewBox="0 0 21 20" fill="none" xmlns="http://www.w3.org/2000/svg">
<path d="M10.8892 0C8.91135 0 6.97795 0.58649 5.33346 1.6853C3.68897 2.78412 2.40725 4.3459 1.65037 6.17317C0.893493 8.00043 0.69546 10.0111 1.08131 11.9509C1.46716 13.8907 2.41957 15.6725 3.8181 17.0711C5.21662 18.4696 6.99845 19.422 8.93826 19.8079C10.8781 20.1937 12.8887 19.9957 14.716 19.2388C16.5433 18.4819 18.105 17.2002 19.2039 15.5557C20.3027 13.9112 20.8892 11.9778 20.8892 10C20.8892 8.68678 20.6305 7.38642 20.128 6.17317C19.6254 4.95991 18.8888 3.85752 17.9602 2.92893C17.0316 2.00035 15.9293 1.26375 14.716 0.761205C13.5027 0.258658 12.2024 0 10.8892 0V0ZM10.8892 18C9.30691 18 7.7602 17.5308 6.4446 16.6518C5.12901 15.7727 4.10363 14.5233 3.49813 13.0615C2.89263 11.5997 2.7342 9.99113 3.04288 8.43928C3.35156 6.88743 4.11349 5.46197 5.23231 4.34315C6.35113 3.22433 7.77659 2.4624 9.32844 2.15372C10.8803 1.84504 12.4888 2.00346 13.9506 2.60896C15.4124 3.21447 16.6619 4.23984 17.5409 5.55544C18.42 6.87103 18.8892 8.41775 18.8892 10C18.8892 12.1217 18.0463 14.1566 16.546 15.6569C15.0457 17.1571 13.0109 18 10.8892 18V18ZM10.8892 4C10.6239 4 10.3696 4.10536 10.1821 4.29289C9.99452 4.48043 9.88916 4.73478 9.88916 5V9.42L7.78916 10.63C7.59652 10.7392 7.44556 10.9092 7.35994 11.1134C7.27433 11.3176 7.25891 11.5444 7.31611 11.7583C7.3733 11.9722 7.49988 12.1611 7.67598 12.2953C7.85208 12.4296 8.06775 12.5015 8.28916 12.5C8.46434 12.5012 8.63676 12.4564 8.78916 12.37L11.3892 10.87L11.4792 10.78L11.6392 10.65C11.6783 10.6005 11.7118 10.5468 11.7392 10.49C11.7718 10.4363 11.7986 10.3793 11.8192 10.32C11.8464 10.2564 11.8632 10.1889 11.8692 10.12C11.8692 10.12 11.8892 10 11.8892 10V5C11.8892 4.73478 11.7838 4.48043 11.5963 4.29289C11.4087 4.10536 11.1544 4 10.8892 4Z" fill="white"/>
</svg>
