<svg width="19" height="20" viewBox="0 0 19 20" fill="none" xmlns="http://www.w3.org/2000/svg">
<path d="M17.666 4H13.666V3C13.666 2.20435 13.3499 1.44129 12.7873 0.87868C12.2247 0.316071 11.4617 0 10.666 0H8.66602C7.87037 0 7.1073 0.316071 6.54469 0.87868C5.98209 1.44129 5.66602 2.20435 5.66602 3V4H1.66602C1.4008 4 1.14645 4.10536 0.958909 4.29289C0.771372 4.48043 0.666016 4.73478 0.666016 5C0.666016 5.26522 0.771372 5.51957 0.958909 5.70711C1.14645 5.89464 1.4008 6 1.66602 6H2.66602V17C2.66602 17.7956 2.98209 18.5587 3.5447 19.1213C4.1073 19.6839 4.87037 20 5.66602 20H13.666C14.4617 20 15.2247 19.6839 15.7873 19.1213C16.3499 18.5587 16.666 17.7956 16.666 17V6H17.666C17.9312 6 18.1856 5.89464 18.3731 5.70711C18.5607 5.51957 18.666 5.26522 18.666 5C18.666 4.73478 18.5607 4.48043 18.3731 4.29289C18.1856 4.10536 17.9312 4 17.666 4ZM7.66602 3C7.66602 2.73478 7.77137 2.48043 7.95891 2.29289C8.14645 2.10536 8.4008 2 8.66602 2H10.666C10.9312 2 11.1856 2.10536 11.3731 2.29289C11.5607 2.48043 11.666 2.73478 11.666 3V4H7.66602V3ZM14.666 17C14.666 17.2652 14.5607 17.5196 14.3731 17.7071C14.1856 17.8946 13.9312 18 13.666 18H5.66602C5.4008 18 5.14645 17.8946 4.95891 17.7071C4.77137 17.5196 4.66602 17.2652 4.66602 17V6H14.666V17Z" fill="#F1416C"/>
</svg>
